<svg t="1593875895884" class="icon" viewBox="0 0 1024 1024" version="1.1" xmlns="http://www.w3.org/2000/svg" p-id="2462" width="200" height="200"><path d="M512 76.8c-240.128 0-435.2 195.072-435.2 435.2s195.072 435.2 435.2 435.2 435.2-195.072 435.2-435.2-195.072-435.2-435.2-435.2z m0 828.928c-217.088 0-393.728-176.64-393.728-393.728S294.912 118.272 512 118.272s393.728 176.64 393.728 393.728-176.64 393.728-393.728 393.728z" p-id="2463"></path><path d="M388.608 350.208c-11.264 0-20.48 9.216-20.48 20.48v283.136c0 11.264 9.216 20.48 20.48 20.48s20.48-9.216 20.48-20.48V371.2c0.512-11.776-8.704-20.992-20.48-20.992zM634.88 351.744c-11.264 0-20.48 9.216-20.48 20.48V655.36c0 11.264 9.216 20.48 20.48 20.48s20.48-9.216 20.48-20.48V372.736c0.512-11.776-8.704-20.992-20.48-20.992z" p-id="2464"></path></svg>