<svg t="1593685989596" class="icon" viewBox="0 0 1024 1024" version="1.1" xmlns="http://www.w3.org/2000/svg" p-id="15033" width="200" height="200"><path d="M845.888 64c-62.912 0-114.176 51.2-114.176 114.176v667.712c0 62.912 51.264 114.176 114.176 114.176S960 908.8 960 845.824V178.176C960 115.2 908.8 64 845.888 64zM512 188.48c-62.912 0-114.112 51.2-114.112 114.176v543.168C397.888 908.8 449.088 960 512 960s114.112-51.2 114.112-114.176V302.656c0-62.912-51.2-114.176-114.112-114.176zM178.112 341.888C115.2 341.888 64 393.152 64 456.064v389.76C64 908.8 115.2 960 178.112 960s114.176-51.2 114.176-114.176v-389.76c0-62.912-51.2-114.176-114.176-114.176z" p-id="15034"></path></svg>