<svg t="1593861907718" class="icon" viewBox="0 0 1024 1024" version="1.1" xmlns="http://www.w3.org/2000/svg" p-id="10210" width="200" height="200"><path d="M832 832a32 32 0 0 1 3.744 63.776L832 896H192a32 32 0 0 1-3.744-63.776L192 832h640z m0-304a32 32 0 0 1 3.744 63.776L832 592H192a32 32 0 0 1-3.744-63.776L192 528h640zM224.256 128.544a64 64 0 0 1 26.816 5.888L256 136.96l127.488 72.832a64 64 0 0 1 4.832 108.096l-4.8 3.04L256 393.824a64 64 0 0 1-95.52-50.016l-0.224-5.568V192.544a64 64 0 0 1 64-64z m0 64v145.696l127.488-72.864-127.488-72.832zM832 224a32 32 0 0 1 3.744 63.776L832 288H496a32 32 0 0 1-3.744-63.776L496 224H832z" p-id="10211"></path></svg>