<svg t="1607092959204" class="icon" viewBox="0 0 1024 1024" version="1.1" xmlns="http://www.w3.org/2000/svg" p-id="3305" width="200" height="200"><path d="M563.2 119.466667l0 56.746667 0 26.436267 25.6 6.621867c28.962133 7.492267 56.593067 19.114667 82.1248 34.6112l22.903467 13.892267 18.926933-18.944 40.6016-40.584533 72.3968 72.3968-41.966933 41.966933-18.4832 18.466133 13.021867 22.664533c14.4384 25.122133 25.2416 52.343467 32.068267 80.878933L816.6912 460.8l26.914133 0L904.533333 460.8l0 102.4-63.829333 0-25.975467 0-6.912 25.053867c-7.4752 27.016533-18.670933 52.9408-33.297067 77.038933l-13.909333 22.920533 18.944 18.926933 46.216533 46.216533-72.3968 72.3968-47.598933-47.581867-18.4832-18.4832-22.647467 13.021867c-23.5008 13.5168-49.015467 23.842133-75.810133 30.7712L563.2 810.069333l0 26.453333L563.2 904.533333l-102.4 0 0-68.010667 0-26.453333-25.617067-6.6048c-26.794667-6.912-52.309333-17.2544-75.810133-30.7712l-22.664533-13.021867-18.466133 18.4832-47.598933 47.598933-72.3968-72.413867 46.216533-46.216533 18.944-18.926933-13.909333-22.920533c-14.6432-24.098133-25.838933-50.0224-33.297067-77.038933L209.288533 563.2 183.296 563.2 119.466667 563.2l0-102.4 60.928 0 26.914133 0 6.280533-26.1632c6.826667-28.535467 17.629867-55.7568 32.068267-80.878933l13.021867-22.664533-18.4832-18.466133-41.966933-41.966933 72.3968-72.3968 40.6016 40.584533 18.926933 18.944 22.903467-13.892267c25.531733-15.496533 53.162667-27.136 82.1248-34.6112l25.6-6.621867 0-26.436267L460.782933 119.466667 563.2 119.466667M512 665.634133c84.701867 0 153.6-68.9152 153.6-153.634133 0-84.701867-68.898133-153.617067-153.6-153.617067S358.4 427.298133 358.4 512C358.4 596.718933 427.298133 665.634133 512 665.634133M597.333333 85.333333 426.666667 85.333333l0 90.88c-32.597333 8.413867-63.232 21.4528-91.306667 38.485333l-64.733867-64.733867-120.661333 120.6784 66.0992 66.0992c-15.957333 27.767467-28.0064 57.9584-35.669333 89.9072L85.333333 426.6496l0 170.666667 97.962667 0c8.430933 30.5152 20.957867 59.221333 37.0176 85.674667l-70.3488 70.3488 120.661333 120.695467 71.7312-71.748267c26.129067 15.018667 54.4256 26.5216 84.309333 34.218667L426.666667 938.666667l170.666667 0 0-102.144c29.883733-7.697067 58.1632-19.2 84.292267-34.218667l71.7312 71.7312 120.661333-120.6784-70.3488-70.3488c16.042667-26.453333 28.586667-55.1424 37.0176-85.674667L938.666667 597.333333 938.666667 426.666667l-95.061333 0c-7.662933-31.965867-19.712-62.1568-35.669333-89.9072l66.0992-66.0992-120.661333-120.6784L688.64 214.698667c-28.074667-17.032533-58.692267-30.071467-91.306667-38.485333L597.333333 85.333333 597.333333 85.333333zM512 631.5008c-65.9968 0-119.466667-53.504-119.466667-119.5008s53.469867-119.483733 119.466667-119.483733 119.466667 53.486933 119.466667 119.483733S577.9968 631.5008 512 631.5008L512 631.5008z" p-id="3306"></path></svg>