<svg t="1604241208727" class="icon" viewBox="0 0 1024 1024" version="1.1" xmlns="http://www.w3.org/2000/svg" p-id="11049" width="200" height="200"><path d="M511.997 102.402c-148.377 0-280.025 16.663-359.999 28.798C85.899 141.237 32.935 192.196 20.8 260.803 10.407 319.222 0 404.99 0 512c0 106.957 10.407 192.78 20.8 251.203C32.988 831.81 85.899 882.816 151.998 892.8c80.232 12.135 212.443 28.798 359.999 28.798 147.562 0 279.719-16.663 359.999-28.798 66.153-9.984 119.068-60.943 131.203-129.597C1013.54 704.732 1024 618.699 1024 512c0-106.752-10.407-192.726-20.8-251.197-12.135-68.607-65.104-119.566-131.203-129.603-79.975-12.135-211.67-28.798-360-28.798z m0 80.513c144.962 0 274.703 12.096 353.08 23.997 33.733 5.103 59.045 32.295 65.135 66.847 9.76 54.847 20.561 135.679 20.561 238.242 0 102.512-10.858 183.395-20.561 238.242-6.146 34.61-31.346 61.743-65.135 66.847-78.704 11.9-208.997 23.997-353.08 23.997-144.133 0-274.426-12.096-353.074-23.997-33.733-5.103-60.704-32.293-66.848-66.847C82.365 695.507 73.22 614.839 73.22 512c0-102.895 9.145-183.507 18.855-238.242 6.145-34.552 33.116-61.743 66.848-66.847 78.371-11.9 208.112-23.996 353.074-23.996zM358.4 307.204v409.598L716.799 512 358.4 307.204z m0 0" p-id="11050"></path></svg>