<svg t="1603966593494" class="icon" viewBox="0 0 1024 1024" version="1.1" xmlns="http://www.w3.org/2000/svg" p-id="3051" width="200" height="200"><path d="M611.105 206.432v621.354c0 49.638-61.288 73.716-95.634 37.574l-159.64-145.732H160.872a72.818 72.818 0 0 1-72.818-72.818V403.89a72.818 72.818 0 0 1 68.521-72.697l4.903-0.12 196.803 3.276 157.213-165.49c34.322-36.167 95.634-12.064 95.634 37.573z m145.271 14.006c105.295 53.57 180.03 158.597 191.099 281.974v63.74c-10.753 120.004-81.75 222.653-182.53 277.484L731.35 779A279.062 279.062 0 0 0 876.09 534.282a279.135 279.135 0 0 0-153.257-249.206l33.544-64.638z m-218.089 30.146L389.06 407.701l-228.186-3.811v242.896h223.186l154.228 140.78V250.585zM695.04 338.67a217.847 217.847 0 0 1 107.454 188.21 217.847 217.847 0 0 1-105.148 186.826l-33.74-64.808a145.053 145.053 0 0 0 66.07-122.018 145.053 145.053 0 0 0-68.278-123.45l33.642-64.76z" p-id="3052"></path></svg>