<svg t="1593749746467" class="icon" viewBox="0 0 1024 1024" version="1.1" xmlns="http://www.w3.org/2000/svg" p-id="5200" width="200" height="200"><path d="M512.1 623.7c38.3 0 76.5-14.6 105.6-43.7 29.2-29.2 43.7-67.4 43.7-105.6V213.1c0-38.2-14.6-76.4-43.7-105.6-29.1-29.1-67.4-43.7-105.5-43.7h-0.1c-38.2 0-76.4 14.6-105.5 43.7-29.2 29.2-43.7 67.4-43.7 105.6v261.2c0 38.2 14.6 76.4 43.7 105.6 29 29.2 67.3 43.8 105.5 43.8z m-112-410.6c0-29.9 11.7-58 32.8-79.2 21.1-21.1 49.2-32.8 79.2-32.8h0.1c29.9 0 58 11.6 79.2 32.8 21.1 21.2 32.8 49.3 32.8 79.2v261.2c0 29.9-11.7 58-32.8 79.2-21.1 21.1-49.2 32.8-79.2 32.8-29.9 0-58-11.6-79.2-32.8-21.1-21.2-32.8-49.3-32.8-79.2V213.1z" fill="#060001" p-id="5201"></path><path d="M736.1 399.8v130.6c0 44.8-17.5 87-49.2 118.8-31.7 31.7-73.9 49.2-118.7 49.2h-112c-44.9 0-87-17.5-118.7-49.2-31.7-31.7-49.2-73.9-49.2-118.8V399.8H251v130.6c0 54.8 21.4 106.4 60.1 145.1 38.7 38.8 90.3 60.1 145.1 60.1h37.3v186.6H362.9v37.3h298.5v-37.3H530.8V735.6h37.3c54.8 0 106.4-21.4 145.1-60.1 38.8-38.8 60.1-90.3 60.1-145.1V399.8h-37.2z" fill="#060001" p-id="5202"></path></svg>