<svg t="1593861843986" class="icon" viewBox="0 0 1024 1024" version="1.1" xmlns="http://www.w3.org/2000/svg" p-id="9795" width="200" height="200"><path d="M740.9 496.4c-28.4 0-56.6-5.6-83.1-16.7-3-1.3-5.7-3.1-8-5.4l-102-102c-2.3-2.3-4.1-5-5.4-8-16.3-38.9-20.8-81.5-13-123.1 8-42.6 28.5-81.5 59.3-112.2 40.7-40.7 94.7-63 152.2-63 57.5 0 111.5 22.4 152.2 63 40.7 40.7 63 94.7 63 152.2 0 57.5-22.4 111.5-63 152.2-30.8 30.8-69.6 51.3-112.2 59.3-13.3 2.5-26.6 3.7-40 3.7z m-59.3-61c61.1 23.5 129.8 9.1 176.2-37.3 64.4-64.4 64.4-169.3 0-233.7-64.4-64.4-169.3-64.4-233.7 0-46.5 46.5-60.9 115.2-37.3 176.2l94.8 94.8z" p-id="9796"></path><path d="M236.8 918.2c-6.4 0-12.8-2.5-17.7-7.3L111.3 803c-9.2-9.2-9.8-24.1-1.3-34l212.3-247c9-10.5 24.8-11.7 35.3-2.7 10.5 9 11.7 24.8 2.7 35.3L163 784l75.1 75.1 428.3-368.2-135.2-135.2-82.5 96c-9 10.5-24.8 11.7-35.3 2.7s-11.7-24.8-2.7-35.3l100.1-116.4c4.5-5.3 11.1-8.4 18-8.7 7-0.3 13.7 2.4 18.6 7.3l173.4 173.4c4.9 4.9 7.6 11.7 7.3 18.6-0.3 7-3.4 13.5-8.7 18L253.1 912.1c-4.7 4.1-10.5 6.1-16.3 6.1z" p-id="9797"></path><path d="M349.4 797.5c-6.4 0-12.8-2.4-17.7-7.3L229.4 687.9c-9.8-9.8-9.8-25.6 0-35.4 9.8-9.8 25.6-9.8 35.4 0l102.3 102.3c9.8 9.8 9.8 25.6 0 35.4-4.9 4.9-11.3 7.3-17.7 7.3z" p-id="9798"></path></svg>